<?xml version="1.0" encoding="utf-8"?>
<!-- Generator: Adobe Illustrator 25.1.0, SVG Export Plug-In . SVG Version: 6.00 Build 0)  -->
<svg version="1.1" id="Layer_1" xmlns="http://www.w3.org/2000/svg" xmlns:xlink="http://www.w3.org/1999/xlink" x="0px" y="0px"
	 viewBox="0 0 2725.39 882.14" style="enable-background:new 0 0 2725.39 882.14;" xml:space="preserve">
<style type="text/css">
	.st0{fill:#ECECEC;}
	.st1{fill:none;}
</style>
<g>
	<g>
		<g>
			<g>
				<path class="st0" d="M1350.33,476.47v3.57c0,17.84,15.46,30.92,36.07,30.92c19.82,0,34.88-12.29,34.88-28.15
					c0-8.32-3.96-15.85-10.7-21c-6.74-5.16-11.5-7.14-32.11-14.67c-57.87-20.62-78.49-42.42-78.49-82.85
					c0-47.96,35.28-80.07,87.21-80.07c51.53,0,84.83,30.12,89.19,80.86h-54.7c-1.98-22.2-13.08-32.9-34.49-32.9
					c-19.42,0-32.5,11.09-32.5,27.75c0,10.7,5.55,19.02,16.25,24.97c7.13,3.96,11.49,5.94,30.92,13.08
					c28.94,10.7,43.6,18.23,55.1,29.33c13.87,13.08,21.01,30.92,21.01,51.13c0,48.36-36.47,80.46-91.17,80.46
					c-55.5,0-89.58-31.71-89.19-82.45h52.72V476.47z"/>
				<path class="st0" d="M1550.93,474.1c4.36,25.37,22.99,41.22,47.96,41.22c18.63,0,34.48-9.12,42.41-23.78l46.38,12.68
					c-18.23,35.68-50.34,55.9-89.19,55.9c-58.27,0-99.89-41.23-99.89-98.31c0-57.48,40.03-97.91,96.72-97.91
					c58.67,0,99.5,41.22,99.5,100.29l-0.4,9.91H1550.93z M1642.89,445.15c-4.36-24.17-21.8-38.85-46.78-38.85
					c-24.18,0-40.43,13.87-45.19,38.85H1642.89z"/>
				<path class="st0" d="M1878.77,532.76c-21.01,19.03-42.81,27.36-70.56,27.36c-55.89,0-97.11-41.23-97.11-97.12
					c0-57.88,40.43-99.1,97.51-99.1c27.35,0,49.95,9.52,73.33,30.52l-33.69,30.53c-11.1-11.1-22.99-16.25-37.66-16.25
					c-27.75,0-48.36,22.59-48.36,52.72c0,31.31,21.01,53.91,50.34,53.91c13.08,0,22.6-3.96,35.68-15.46L1878.77,532.76z"/>
				<path class="st0" d="M2058.36,370.24v116.14c0,26.95-5.55,42.02-20.61,54.7c-14.67,12.29-35.28,19.03-59.46,19.03
					c-25.37,0-47.17-7.14-61.44-20.22c-13.08-11.89-19.42-29.33-19.42-53.51V370.24h50.34V483.2c0,20.62,12.29,34.49,30.52,34.49
					c18.63,0,29.73-11.89,29.73-31.31V370.24H2058.36z"/>
				<path class="st0" d="M2147.17,370.24v26.95c5.15-13.48,8.72-19.03,16.25-24.58c7.93-5.55,18.63-8.72,29.73-8.72
					c1.19,0,3.17,0,5.95,0.4v51.53c-3.97-0.4-7.93-0.79-10.7-0.79c-13.87,0-26.56,6.35-33.69,16.65c-5.95,8.33-7.53,16.26-7.53,33.7
					v88.4h-50.34V370.24H2147.17z"/>
				<path class="st0" d="M2366.59,335.96h19.92l-79.03,217.81h-15.67l-77.72-217.81H2234l65.64,187.11L2366.59,335.96z"/>
				<path class="st0" d="M2428.32,361.76c0,6.53-5.55,12.08-12.08,12.08c-6.86,0-12.41-5.55-12.41-12.41
					c0-6.85,5.55-12.41,12.41-12.41S2428.32,354.58,2428.32,361.76z M2424.08,553.77h-16.33V403.56h16.33V553.77z"/>
				<path class="st0" d="M2583.44,335.96h16.33v217.81h-16.33v-29.06c-16.33,22.21-32.65,31.67-55.19,31.67
					c-40.49,0-69.23-32-69.23-77.06s28.74-78.37,68.25-78.37c10.78,0,22.21,2.62,32,7.51c9.8,4.9,15.35,9.47,24.17,20.9V335.96z
					 M2476.01,479.64c0,36.24,21.55,61.39,52.57,61.39c32,0,55.19-26.45,55.19-62.7c0-37.22-21.22-62.04-53.23-62.04
					C2497.89,416.29,2476.01,441.76,2476.01,479.64z"/>
			</g>
		</g>
		<g>
			<path class="st0" d="M159.72,539.03H112.7V310.1h73.11c54.23,0,84.77,26.43,84.77,73.11c0,47.71-31.23,77.22-81.69,77.22h-29.17
				L159.72,539.03L159.72,539.03z M179.98,421.65c27.12,0,42.9-13.04,42.9-36.04c0-22.65-16.13-36.72-41.87-36.72h-21.28v72.76
				H179.98z"/>
			<path class="st0" d="M341.97,539.03h-47.02V310.1h70.71c56.63,0,87.18,25.06,87.18,72.08c0,36.04-18.88,60.06-54.23,68.99
				l63.15,87.86h-56.98l-62.81-90.95L341.97,539.03L341.97,539.03z M363.25,420.62c26.77,0,41.87-13.04,41.87-36.04
				c0-21.97-14.42-35.69-37.76-35.69h-25.4v71.73H363.25z"/>
			<path class="st0" d="M535.54,539.03h-47.02V310.1h47.02V539.03z"/>
			<path class="st0" d="M696.16,310.1h48.4l-72.08,228.93h-50.11L553.03,310.1h48.4l46.34,153.42L696.16,310.1z"/>
			<path class="st0" d="M807.69,444.3c0,21.28,2.75,32.95,10.3,41.87c6.86,8.58,19.22,14.07,31.92,14.07
				c13.39,0,26.43-6.18,33.29-15.79c6.86-9.27,8.92-19.22,8.92-40.5V310.1h47.36v132.48c0,33.64-7.21,56.98-22.65,74.14
				c-15.44,17.16-39.47,26.77-66.24,26.77c-27.8,0-53.2-10.3-69.33-28.49c-14.76-16.48-20.59-37.07-20.59-72.42V310.1h47.02
				L807.69,444.3L807.69,444.3z"/>
			<path class="st0" d="M1013.27,472.1v3.09c0,15.45,13.39,26.77,31.23,26.77c17.16,0,30.2-10.64,30.2-24.37
				c0-7.21-3.43-13.73-9.27-18.19s-9.95-6.18-27.8-12.7c-50.11-17.85-67.96-36.73-67.96-71.73c0-41.53,30.55-69.33,75.51-69.33
				c44.62,0,73.45,26.08,77.22,70.02h-47.36c-1.72-19.22-11.33-28.49-29.86-28.49c-16.82,0-28.15,9.61-28.15,24.03
				c0,9.27,4.81,16.48,14.08,21.62c6.18,3.43,9.95,5.15,26.77,11.33c25.05,9.27,37.76,15.79,47.71,25.4
				c12.01,11.33,18.19,26.77,18.19,44.27c0,41.87-31.58,69.68-78.94,69.68c-48.05,0-77.57-27.46-77.22-71.39L1013.27,472.1
				L1013.27,472.1z"/>
		</g>
		<g>
			<rect x="1213.55" y="253.24" class="st0" width="15.66" height="342.65"/>
		</g>
	</g>
</g>
<rect x="-5.62" y="3.73" class="st1" width="2735.99" height="880.74"/>
</svg>
