<?xml version="1.0" encoding="utf-8"?>
<!-- Generator: Adobe Illustrator 24.2.1, SVG Export Plug-In . SVG Version: 6.00 Build 0)  -->
<svg version="1.1" id="Layer_1" xmlns="http://www.w3.org/2000/svg" xmlns:xlink="http://www.w3.org/1999/xlink" x="0px" y="0px"
	 viewBox="0 0 18 18" style="enable-background:new 0 0 18 18;" xml:space="preserve">
<style type="text/css">
	.st0{fill:#FFFFFF;}
	.st1{fill-rule:evenodd;clip-rule:evenodd;fill:#FFFFFF;}
	.st2{fill-rule:evenodd;clip-rule:evenodd;fill:#2CA478;}
</style>
<g>
	<path class="st0" d="M9,17c-0.1,0-0.3,0-0.4,0l0-0.8c0.3,0,0.5,0,0.8,0l0,0.8C9.3,17,9.1,17,9,17z M7.7,16.9
		c-0.3,0-0.6-0.1-0.8-0.2l0.2-0.8C7.3,16,7.6,16,7.8,16.1L7.7,16.9z M10.3,16.9l-0.1-0.8c0.3,0,0.5-0.1,0.8-0.2l0.2,0.8
		C10.9,16.8,10.6,16.8,10.3,16.9z M6.1,16.4c-0.3-0.1-0.5-0.2-0.8-0.4l0.4-0.7c0.2,0.1,0.5,0.2,0.7,0.3L6.1,16.4z M12,16.4l-0.3-0.8
		c0.2-0.1,0.5-0.2,0.7-0.3l0.4,0.7C12.5,16.2,12.2,16.3,12,16.4z M4.5,15.6c-0.2-0.2-0.5-0.3-0.7-0.5l0.5-0.6
		c0.2,0.2,0.4,0.3,0.6,0.5L4.5,15.6z M13.5,15.6L13,14.9c0.2-0.1,0.4-0.3,0.6-0.5l0.5,0.6C14,15.3,13.7,15.4,13.5,15.6z M3.2,14.5
		c-0.2-0.2-0.4-0.4-0.6-0.7l0.6-0.5c0.2,0.2,0.3,0.4,0.5,0.6L3.2,14.5z M14.8,14.5l-0.6-0.6c0.2-0.2,0.3-0.4,0.5-0.6l0.6,0.5
		C15.2,14.1,15,14.3,14.8,14.5z M2.2,13.1c-0.1-0.2-0.3-0.5-0.4-0.8L2.5,12c0.1,0.2,0.2,0.5,0.4,0.7L2.2,13.1z M15.9,13.1l-0.7-0.4
		c0.1-0.2,0.3-0.5,0.4-0.7l0.7,0.3C16.1,12.6,16,12.9,15.9,13.1z M1.4,11.6c-0.1-0.3-0.2-0.6-0.2-0.8L2,10.6
		c0.1,0.3,0.1,0.5,0.2,0.7L1.4,11.6z M16.6,11.5l-0.8-0.3c0.1-0.2,0.2-0.5,0.2-0.7l0.8,0.2C16.7,11,16.7,11.3,16.6,11.5z M1.1,9.9
		C1,9.6,1,9.3,1,9l0.8,0c0,0.3,0,0.5,0,0.8L1.1,9.9z M16.9,9.9l-0.8-0.1c0-0.3,0-0.5,0-0.8v0H17v0C17,9.3,17,9.6,16.9,9.9z M1.9,8.2
		L1.1,8.1c0-0.3,0.1-0.6,0.1-0.9L2,7.5C1.9,7.7,1.9,8,1.9,8.2z M16.1,8.2c0-0.3-0.1-0.5-0.1-0.8l0.8-0.2c0.1,0.3,0.1,0.6,0.1,0.9
		L16.1,8.2z M2.2,6.7L1.4,6.5c0.1-0.3,0.2-0.5,0.3-0.8L2.5,6C2.4,6.2,2.3,6.5,2.2,6.7z M15.8,6.7c-0.1-0.2-0.2-0.5-0.3-0.7l0.7-0.3
		c0.1,0.3,0.2,0.5,0.3,0.8L15.8,6.7z M2.8,5.3L2.1,4.9c0.1-0.2,0.3-0.5,0.5-0.7l0.6,0.5C3.1,4.9,3,5.1,2.8,5.3z M15.1,5.3
		C15,5,14.9,4.8,14.7,4.6l0.6-0.5c0.2,0.2,0.3,0.5,0.5,0.7L15.1,5.3z M3.8,4.1L3.2,3.5c0.2-0.2,0.4-0.4,0.6-0.6l0.5,0.6
		C4.1,3.7,4,3.9,3.8,4.1z M14.2,4c-0.2-0.2-0.4-0.4-0.6-0.5l0.5-0.6c0.2,0.2,0.4,0.4,0.6,0.6L14.2,4z M5,3.1L4.5,2.4
		C4.7,2.2,5,2.1,5.2,1.9l0.4,0.7C5.4,2.8,5.2,2.9,5,3.1z M13,3c-0.2-0.1-0.4-0.3-0.7-0.4l0.4-0.7c0.3,0.1,0.5,0.3,0.7,0.4L13,3z
		 M6.3,2.3L6,1.6c0.3-0.1,0.5-0.2,0.8-0.3l0.2,0.8C6.8,2.1,6.6,2.2,6.3,2.3z M11.6,2.3c-0.2-0.1-0.5-0.2-0.7-0.2l0.2-0.8
		c0.3,0.1,0.6,0.2,0.8,0.3L11.6,2.3z M7.8,1.9L7.7,1.1C8,1.1,8.3,1,8.5,1l0,0.8C8.3,1.8,8.1,1.9,7.8,1.9z M10.1,1.9
		c-0.3,0-0.5-0.1-0.8-0.1l0-0.8c0.3,0,0.6,0,0.9,0.1L10.1,1.9z"/>
	<g>
		<path class="st1" d="M11.8,6.9h-0.5c0-0.5,0-0.9,0-1c0-1.3-1-2.3-2.3-2.3c-1.3,0-2.3,1-2.3,2.3c0,0.1,0,0.6,0,1H6.2
			c-0.5,0-0.9,0.4-0.9,0.9v4.6c0,0.5,0.4,0.9,0.9,0.9h5.5c0.5,0,0.9-0.4,0.9-0.9V7.8C12.6,7.3,12.2,6.9,11.8,6.9z M7.5,5.9
			c0-0.8,0.7-1.5,1.5-1.5c0.8,0,1.5,0.7,1.5,1.5c0,0.1,0,0.6,0,1H7.5C7.5,6.5,7.5,6,7.5,5.9z"/>
		<path class="st2" d="M11.5,8.8l-0.6-0.6c0,0-0.1,0-0.1,0l-2.5,2.5L7.5,9.9c0,0-0.1,0-0.1,0l-0.6,0.6c0,0,0,0.1,0,0.1l0.9,0.9
			l0.6,0.6l0,0c0,0,0,0,0.1,0c0,0,0.1,0,0.1,0l0,0l0.6-0.6L11.5,9C11.5,8.9,11.5,8.8,11.5,8.8z"/>
	</g>
</g>
</svg>
