<?xml version="1.0" encoding="utf-8"?>
<!-- Svg Vector Icons : http://www.onlinewebfonts.com/icon -->
<!DOCTYPE svg PUBLIC "-//W3C//DTD SVG 1.1//EN" "http://www.w3.org/Graphics/SVG/1.1/DTD/svg11.dtd">
<svg version="1.1" xmlns="http://www.w3.org/2000/svg" xmlns:xlink="http://www.w3.org/1999/xlink" x="0px" y="0px" viewBox="0 0 1000 1000" enable-background="new 0 0 1000 1000" xml:space="preserve">
<metadata> Svg Vector Icons : http://www.onlinewebfonts.com/icon </metadata>
<g><path d="M530.4,818v101.2c101.2,5.5,179.5,39,179.5,70.2c0,0.8-415,0.8-415,0c0-30.1,72.4-62.5,168.2-69.7V817.6C340.9,800.1,246.6,696,246.6,568.8v-50.4h33.7v50.4c0,120.8,97.9,218.7,218.7,218.7h0.1c120.8,0,220.7-97.9,220.7-218.7v-50.4h33.7v50.4C753.4,697.4,654.8,802.3,530.4,818L530.4,818z M498.9,751.8c-102.2,0-185.1-82.9-185.1-185.1v-48.4h372.3v48.4C686.1,668.9,601.1,751.8,498.9,751.8L498.9,751.8z M313.8,195.1C313.8,92.9,396.7,10,498.9,10c102.2,0,187.2,82.9,187.2,185.1v289.6H313.8V195.1L313.8,195.1z"/></g>
</svg>