<?xml version="1.0" encoding="utf-8"?>
<!-- Svg Vector Icons : http://www.onlinewebfonts.com/icon -->
<!DOCTYPE svg PUBLIC "-//W3C//DTD SVG 1.1//EN" "http://www.w3.org/Graphics/SVG/1.1/DTD/svg11.dtd">
<svg version="1.1" xmlns="http://www.w3.org/2000/svg" xmlns:xlink="http://www.w3.org/1999/xlink" x="0px" y="0px" viewBox="0 0 1000 1000" enable-background="new 0 0 1000 1000" xml:space="preserve">
<metadata> Svg Vector Icons : http://www.onlinewebfonts.com/icon </metadata>
<g><g transform="translate(0.000000,512.000000) scale(0.100000,-0.100000)"><path d="M4540.7,5000.8c-392.4-36.4-884.4-147.4-1234.7-275.7c-279.5-103.4-735.1-331.2-976.3-488.1c-727.4-476.7-1313.2-1131.3-1696.1-1895.1C453.7,1982,277.6,1491.9,224,1206.7c-42.1-225.9,235.4-344.6,365.6-157c419.2,593.4,926.5,1016.5,1625.2,1351.5c813.6,390.5,1698,572.4,2785.3,572.4c1068.2,0,1964-179.9,2752.7-555.1c717.9-342.7,1232.8-767.6,1657.8-1368.7c80.4-114.9,252.7-122.5,336.9-15.3c53.6,68.9,49.8,126.3-30.6,405.8c-392.4,1370.6-1299.8,2467.5-2544.1,3074.3c-576.2,281.4-1102.6,428.8-1742,488.1C5191.6,5023.8,4781.9,5023.8,4540.7,5000.8z"/><path d="M4521.6,2560.1c-1209.8-88.1-2205.3-432.6-2930.8-1018.4c-189.5-153.1-486.2-463.3-587.7-614.5c-103.4-155.1-105.3-222.1-13.4-373.3C1361.1-62.5,2159.4-598.5,3105-864.6c1131.3-317.8,2653.2-317.8,3794.1,1.9c518.8,143.6,1072,409.6,1437.6,691c377.1,291,740.8,735.1,740.8,907.4c0,187.6-484.3,702.5-959,1018.4c-599.2,396.3-1387.9,666.2-2257,769.5C5614.6,2554.4,4753.2,2577.3,4521.6,2560.1z M3350,1315.8c145.5-47.9,268-151.2,346.5-294.8c63.2-114.9,68.9-135.9,68.9-287.1c-1.9-137.8-9.6-178-53.6-262.3c-65.1-126.3-160.8-222.1-287.1-287.1c-86.1-44-122.5-51.7-262.3-51.7c-139.7,0-176.1,7.7-262.3,51.7c-126.3,65.1-222.1,160.8-287.1,287.1c-44,84.2-51.7,124.4-53.6,262.3c0,151.2,3.8,170.4,68.9,287.1C2773.8,1287.1,3068.6,1405.8,3350,1315.8z M7096.3,1287.1c120.6-57.4,235.4-172.3,296.7-294.8c38.3-78.5,47.9-124.4,47.9-258.4c0-139.7-7.7-176.1-53.6-262.3c-65.1-128.3-160.8-222.1-287.1-287.1c-86.1-44-122.5-51.7-262.3-51.7c-134,0-178,7.7-248.9,44c-143.6,74.7-220.1,147.4-287.1,271.8c-180,336.9-23,733.2,344.6,867.2C6767,1359.8,6971.9,1346.4,7096.3,1287.1z"/><path d="M193.4,699.4c-51.7-46-61.3-70.8-74.7-195.3c-23-197.2-23-560.9,0-813.6c59.3-637.5,220.1-1194.5,507.3-1765c137.8-275.6,153.1-313.9,128.3-338.8c-15.3-15.3-36.4-80.4-46-145.5c-28.7-216.3-199.1-557.1-467.1-936.1C91.9-3705.4,74.7-3759,126.4-3858.5c34.5-65.1,78.5-84.2,323.5-145.5c107.2-28.7,227.8-59.3,266.1-68.9l72.7-19.1l-134-197.2c-72.7-109.1-137.8-220.1-143.6-246.9c-19.1-70.8,34.5-178,109.1-216.3c53.6-26.8,99.5-30.6,321.6-21.1c467.1,23,884.4,124.4,1150.5,281.4c128.3,76.6,348.4,291,371.4,363.7c7.7,23,19.1,38.3,24.9,34.5c7.7-3.8,155.1-76.6,329.3-162.7c365.6-181.9,581.9-264.2,939.9-359.9c440.3-114.9,725.5-151.2,1242.4-151.2c516.9,0,802.1,36.4,1242.4,151.2c1774.5,470.9,3147.1,1897,3543.3,3685c93.8,426.9,139.7,1058.6,99.5,1407c-17.2,155.1-24.9,176.1-78.5,224c-44,38.3-80.4,53.6-134,53.6c-105.3,0-164.6-53.6-210.6-197.2c-112.9-340.8-568.5-838.5-1073.9-1179.2c-880.6-589.6-2002.3-882.5-3388.3-882.5c-1387.9,0-2507.7,291-3388.3,882.5C1106.5-282.6,650.9,215.1,538,555.8C492,699.4,432.7,753,327.4,753C273.8,753,237.4,737.7,193.4,699.4z"/></g></g>
</svg>