<?xml version="1.0" encoding="utf-8"?>
<!-- Generator: Adobe Illustrator 24.2.1, SVG Export Plug-In . SVG Version: 6.00 Build 0)  -->
<svg version="1.1" id="Layer_1" xmlns="http://www.w3.org/2000/svg" xmlns:xlink="http://www.w3.org/1999/xlink" x="0px" y="0px"
	 viewBox="0 0 32 32" style="enable-background:new 0 0 32 32;" xml:space="preserve">
<style type="text/css">
	.st0{fill-rule:evenodd;clip-rule:evenodd;fill:#2CA478;}
	.st1{fill-rule:evenodd;clip-rule:evenodd;fill:#FFFFFF;}
</style>
<g>
	<path class="st0" d="M23.9,11.5h-1.4c0-1.3,0-2.7,0-2.9C22.5,4.9,19.6,2,16,2c-3.6,0-6.6,2.9-6.6,6.6c0,0.3,0,1.7,0,2.9H8.1
		c-1.4,0-2.6,1.2-2.6,2.6v13.4c0,1.4,1.2,2.6,2.6,2.6h15.9c1.4,0,2.6-1.2,2.6-2.6V14.1C26.5,12.6,25.4,11.5,23.9,11.5z M11.7,8.6
		c0-2.3,1.9-4.2,4.2-4.2c2.3,0,4.2,1.9,4.2,4.2c0,0.2,0,1.6,0,2.9h-8.5C11.7,10.2,11.7,8.8,11.7,8.6z"/>
	<path class="st1" d="M23.1,16.9l-1.7-1.7c-0.1-0.1-0.3-0.1-0.4,0l-7.1,7.1l-2.3-2.3c-0.1-0.1-0.3-0.1-0.4,0l-1.7,1.7
		c-0.1,0.1-0.1,0.3,0,0.4l2.5,2.5l1.7,1.7l0,0c0,0,0.1,0.1,0.1,0.1c0.1,0,0.2,0,0.2-0.1l0,0l1.6-1.6l7.3-7.3
		C23.2,17.2,23.2,17,23.1,16.9z"/>
</g>
</svg>
