<?xml version="1.0" encoding="utf-8"?>
<!-- Generator: Adobe Illustrator 24.2.1, SVG Export Plug-In . SVG Version: 6.00 Build 0)  -->
<svg version="1.1" id="Layer_1" xmlns="http://www.w3.org/2000/svg" xmlns:xlink="http://www.w3.org/1999/xlink" x="0px" y="0px"
	 viewBox="0 0 24 25" style="enable-background:new 0 0 24 25;" xml:space="preserve">
<style type="text/css">
	.st0{fill:#FFFFFF;}
</style>
<g>
	<path class="st0" d="M20.9,4.4L20.9,4.4c0-1.4-1.2-2.5-2.6-2.5H5.7C4.3,1.9,3.1,3,3.1,4.4l-0.3,9.4c0,5.1,8.7,9,9,9.2l0.2,0.1
		l0.2-0.1c0.4-0.2,9-4.1,9-9.2L20.9,4.4z M12,22.1c-1.3-0.6-8.3-4.1-8.3-8.2L4,4.5c0-0.9,0.8-1.6,1.7-1.6h12.6
		c0.9,0,1.6,0.7,1.7,1.6v0l0.3,9.3C20.3,17.9,13.3,21.4,12,22.1z"/>
	<path class="st0" d="M12,15.3c-0.4,0-0.8,0.1-0.9,0.2c-0.3,0.3-0.3,1.6,0,1.9c0.3,0.3,1.5,0.3,1.8,0c0.3-0.3,0.3-1.6,0-1.9
		C12.8,15.3,12.4,15.3,12,15.3z"/>
	<polygon class="st0" points="10.7,14.6 10.6,14.6 10.7,14.6 	"/>
	<path class="st0" d="M11.1,14.4c0.2,0.1,0.6,0.2,1,0.1c0.5,0,0.7-0.1,0.8-0.2c0.1-0.1,0.1-1.3,0.2-1.5c0.2-0.5,0.6-0.8,1.2-1.4
		l0.4-0.4c0.4-0.3,0.6-0.7,0.8-1c0.2-0.4,0.2-0.8,0.2-1.3c0-0.9-0.3-1.6-1-2.2c-0.7-0.6-1.7-0.9-2.9-0.9c-1.2,0-2.2,0.3-2.8,0.9
		C8.5,7.2,7.9,8.8,8,9.2c0,0,0.2,0.1,0.7,0.2c0.5,0,1-0.1,1.3-0.2c0-0.6,0.2-1.1,0.5-1.5c0.4-0.4,0.9-0.6,1.5-0.6
		c0.6,0,1.1,0.2,1.4,0.5c0.4,0.3,0.6,0.8,0.6,1.3c0,0.6-0.5,1.4-1.5,2.2c-0.2,0.2-0.4,0.3-0.5,0.4c-0.3,0.2-0.5,0.6-0.6,1
		C11.2,12.8,11.1,13.9,11.1,14.4z"/>
</g>
</svg>
