<?xml version="1.0" encoding="utf-8"?>
<!-- Generator: Adobe Illustrator 24.2.1, SVG Export Plug-In . SVG Version: 6.00 Build 0)  -->
<svg version="1.1" id="Layer_1" xmlns="http://www.w3.org/2000/svg" xmlns:xlink="http://www.w3.org/1999/xlink" x="0px" y="0px"
	 viewBox="0 0 32 32" style="enable-background:new 0 0 32 32;" xml:space="preserve">
<style type="text/css">
	.st0{fill-rule:evenodd;clip-rule:evenodd;fill:#A22B2B;}
	.st1{fill-rule:evenodd;clip-rule:evenodd;fill:#FFFFFF;}
</style>
<g>
	<path class="st0" d="M23.9,11.5h-1.4c0-1.3,0-2.7,0-2.9C22.5,4.9,19.6,2,16,2c-3.2,0-5.8,2.3-6.4,5.3l2.2,1.1c0.1-2.2,1.9-4,4.2-4
		c2.3,0,4.2,1.9,4.2,4.2c0,0.2,0,1.6,0,2.9h-2h-6.5H9.4H8.1c-1.4,0-2.6,1.2-2.6,2.6v13.4c0,1.4,1.2,2.6,2.6,2.6h15.9
		c1.4,0,2.6-1.2,2.6-2.6V14.1C26.5,12.6,25.4,11.5,23.9,11.5z"/>
	<path class="st1" d="M18.2,21.1l3.7-3.7l0,0l0,0c0,0,0.1-0.1,0.1-0.2c0,0,0,0,0,0c0,0,0,0,0,0c0,0,0,0,0,0c0,0,0,0,0,0
		c0,0,0-0.1-0.1-0.1l0,0h0l-1.8-1.8c-0.1-0.1-0.3-0.1-0.4,0L16,18.9l-3.7-3.7c-0.1-0.1-0.3-0.2-0.4,0l-1.8,1.8h0l0,0
		c0,0,0,0.1-0.1,0.1c0,0,0,0,0,0c0,0,0,0,0,0c0,0,0,0,0,0c0,0,0,0,0,0c0,0.1,0,0.1,0.1,0.2l0,0l0,0l3.7,3.7l-3.7,3.7
		c-0.1,0.1-0.2,0.3,0,0.4l1.8,1.8v0l0,0c0,0,0.1,0,0.1,0.1c0,0,0,0,0,0c0,0,0,0,0,0c0,0,0,0,0,0c0,0,0,0,0,0c0.1,0,0.1,0,0.2-0.1
		l0,0l0,0l3.7-3.7l3.7,3.7l0,0l0,0c0,0,0.1,0.1,0.2,0.1c0,0,0,0,0,0c0,0,0,0,0,0c0,0,0,0,0,0c0,0,0,0,0,0c0,0,0.1,0,0.1-0.1l0,0v0
		l1.8-1.8c0.1-0.1,0.1-0.3,0-0.4L18.2,21.1z"/>
</g>
</svg>
