<?xml version="1.0" encoding="utf-8"?>
<!-- Generator: Adobe Illustrator 24.2.1, SVG Export Plug-In . SVG Version: 6.00 Build 0)  -->
<svg version="1.1" id="Layer_1" xmlns="http://www.w3.org/2000/svg" xmlns:xlink="http://www.w3.org/1999/xlink" x="0px" y="0px"
	 viewBox="0 0 24 25" style="enable-background:new 0 0 24 25;" xml:space="preserve">
<style type="text/css">
	.st0{fill:#FFFFFF;}
	.st1{fill:#2CA478;}
	.st2{fill-rule:evenodd;clip-rule:evenodd;fill:#FFFFFF;}
</style>
<g>
	<path class="st0" d="M20.9,4.4L20.9,4.4c0-1.4-1.2-2.5-2.6-2.5H5.7C4.3,1.9,3.1,3,3.1,4.4l-0.3,9.4c0,5.1,8.7,9,9,9.2l0.2,0.1
		l0.2-0.1c0.4-0.2,9-4.1,9-9.2L20.9,4.4z"/>
	<path class="st1" d="M12,22.1c-1.3-0.6-8.3-4.1-8.3-8.2L4,4.5c0-0.9,0.8-1.6,1.7-1.6h12.6c0.9,0,1.6,0.7,1.7,1.6v0l0.3,9.3
		C20.3,17.9,13.3,21.4,12,22.1z"/>
	<polygon class="st0" points="10.7,14.6 10.6,14.6 10.7,14.6 	"/>
</g>
<path class="st2" d="M17.1,8.6l-1.3-1.3c-0.1-0.1-0.2-0.1-0.3,0l-5.4,5.4L8.4,11c-0.1-0.1-0.2-0.1-0.3,0l-1.3,1.3
	c-0.1,0.1-0.1,0.2,0,0.3l1.9,1.9l1.3,1.3l0,0c0,0,0.1,0,0.1,0c0.1,0,0.1,0,0.2,0l0,0l1.3-1.3l5.5-5.5C17.2,8.8,17.2,8.7,17.1,8.6z"
	/>
</svg>
