<svg xmlns="http://www.w3.org/2000/svg" xmlns:xlink="http://www.w3.org/1999/xlink" preserveAspectRatio="xMidYMid" width="50" height="50" viewBox="0 0 50 50">
  <defs>
    <style>
      .cls-1 {
        fill: #000;
        fill-rule: evenodd;
      }
    </style>
  </defs>
  <g id="artboard-1">
    <path d="M42.860,20.630 L42.860,37.654 C42.860,41.152 40.013,43.998 36.514,43.998 L12.933,43.998 C9.669,43.998 7.013,41.344 7.013,38.081 L7.013,20.301 C5.319,20.104 3.997,18.681 3.997,16.933 C3.997,15.052 5.523,13.526 7.405,13.526 C9.288,13.526 10.813,15.052 10.813,16.933 C10.813,18.029 10.287,18.992 9.484,19.615 L15.945,25.074 L24.431,16.591 L33.637,25.793 L40.508,19.924 C39.711,19.301 39.190,18.341 39.190,17.250 C39.190,15.368 40.716,13.843 42.598,13.843 C44.480,13.843 46.006,15.368 46.006,17.250 C46.006,19.042 44.618,20.494 42.860,20.630 ZM39.056,26.754 L33.637,31.171 L24.431,21.969 L15.945,30.452 L10.818,26.327 L10.818,38.081 C10.818,39.246 11.767,40.195 12.933,40.195 L36.514,40.195 C37.915,40.195 39.056,39.054 39.056,37.654 L39.056,26.754 ZM23.937,13.813 C22.055,13.813 20.529,12.288 20.529,10.406 C20.529,8.525 22.055,7.000 23.937,7.000 C25.819,7.000 27.346,8.525 27.346,10.406 C27.346,12.288 25.819,13.813 23.937,13.813 Z" class="cls-1"/>
  </g>
</svg>
